<?xml version="1.0" standalone="no"?><!DOCTYPE svg PUBLIC "-//W3C//DTD SVG 1.1//EN" "http://www.w3.org/Graphics/SVG/1.1/DTD/svg11.dtd"><svg t="1610081721621" class="icon" viewBox="0 0 1024 1024" version="1.1" xmlns="http://www.w3.org/2000/svg" p-id="1336" xmlns:xlink="http://www.w3.org/1999/xlink" width="200" height="200"><defs><style type="text/css"></style></defs><path d="M452.608 394.24c5.12-16.384 7.168-32.768 7.168-50.176 0-95.232-76.8-172.032-172.032-172.032s-172.032 76.8-172.032 172.032c0 77.824 52.224 143.36 122.88 164.864v223.232h532.48v-337.92H452.608z" fill="#ffffff" p-id="1337"></path><path d="M771.072 747.52h-532.48c-8.192 0-15.36-7.168-15.36-15.36V520.192c-72.704-26.624-122.88-97.28-122.88-176.128 0-103.424 83.968-187.392 187.392-187.392s187.392 83.968 187.392 187.392c0 11.264-1.024 23.552-3.072 34.816h299.008c8.192 0 15.36 7.168 15.36 15.36v337.92c0 8.192-7.168 15.36-15.36 15.36z m-517.12-30.72h501.76V409.6H452.608c-5.12 0-9.216-2.048-12.288-6.144-3.072-4.096-4.096-9.216-2.048-13.312 4.096-15.36 7.168-30.72 7.168-46.08 0-86.016-70.656-156.672-156.672-156.672s-156.672 70.656-156.672 156.672c0 68.608 46.08 130.048 111.616 150.528 6.144 2.048 11.264 8.192 11.264 14.336V716.8z" fill="#ffffff" p-id="1338"></path><path d="M732.16 516.096c95.232 0 172.032-76.8 172.032-172.032s-76.8-172.032-172.032-172.032c-28.672 0-56.32 7.168-80.896 20.48-24.576-90.112-106.496-156.672-204.8-156.672-117.76 0-212.992 95.232-212.992 212.992s95.232 212.992 212.992 212.992" fill="#ffffff" p-id="1339"></path><path d="M732.16 531.456c-8.192 0-15.36-7.168-15.36-15.36s7.168-15.36 15.36-15.36c86.016 0 156.672-70.656 156.672-156.672s-70.656-156.672-156.672-156.672c-25.6 0-50.176 6.144-73.728 18.432-4.096 2.048-9.216 2.048-13.312 1.024-4.096-2.048-7.168-5.12-9.216-10.24C613.376 110.592 534.528 51.2 446.464 51.2 337.92 51.2 248.832 140.288 248.832 248.832S337.92 446.464 446.464 446.464c8.192 0 15.36 7.168 15.36 15.36s-7.168 15.36-15.36 15.36c-125.952 0-228.352-102.4-228.352-228.352S320.512 20.48 446.464 20.48C542.72 20.48 628.736 80.896 660.48 169.984c22.528-9.216 47.104-14.336 71.68-14.336 103.424 0 187.392 83.968 187.392 187.392s-83.968 188.416-187.392 188.416z" fill="#ffffff" p-id="1340"></path><path d="M238.592 732.16h532.48v81.92h-532.48z" fill="#ffffff" p-id="1341"></path><path d="M771.072 829.44h-532.48c-8.192 0-15.36-7.168-15.36-15.36v-81.92c0-8.192 7.168-15.36 15.36-15.36h532.48c8.192 0 15.36 7.168 15.36 15.36v81.92c0 8.192-7.168 15.36-15.36 15.36z m-517.12-30.72h501.76v-51.2h-501.76v51.2z" fill="#ffffff" p-id="1342"></path><path d="M443.392 747.52c-8.192 0-15.36-7.168-15.36-15.36v-143.36c0-8.192 7.168-15.36 15.36-15.36s15.36 7.168 15.36 15.36v143.36c0 8.192-7.168 15.36-15.36 15.36z" fill="#ffffff" p-id="1343"></path><path d="M566.272 747.52c-8.192 0-15.36-7.168-15.36-15.36v-215.04c0-8.192 7.168-15.36 15.36-15.36s15.36 7.168 15.36 15.36v215.04c0 8.192-7.168 15.36-15.36 15.36z" fill="#ffffff" p-id="1344"></path><path d="M594.944 965.632H271.36c-18.432 0-32.768-14.336-32.768-32.768v-5.12c0-18.432 14.336-32.768 32.768-32.768H593.92c18.432 0 32.768 14.336 32.768 32.768v4.096c1.024 18.432-13.312 33.792-31.744 33.792z" fill="#ffffff" p-id="1345"></path><path d="M594.944 980.992H271.36c-26.624 0-48.128-21.504-48.128-48.128v-5.12c0-26.624 21.504-48.128 48.128-48.128H593.92c26.624 0 48.128 21.504 48.128 48.128v4.096c1.024 26.624-20.48 49.152-47.104 49.152z m-323.584-71.68c-10.24 0-17.408 8.192-17.408 17.408v5.12c0 10.24 8.192 17.408 17.408 17.408H593.92c10.24 0 17.408-8.192 17.408-17.408v-5.12c0-10.24-8.192-17.408-17.408-17.408H271.36z" fill="#ffffff" p-id="1346"></path><path d="M660.48 954.368c-15.36 0-27.648-12.288-27.648-27.648 0-15.36 12.288-27.648 27.648-27.648h143.36c-10.24-22.528-33.792-38.912-60.416-38.912h-89.088c-36.864 0-66.56 29.696-66.56 66.56s29.696 66.56 66.56 66.56h89.088c26.624 0 50.176-16.384 60.416-38.912h-143.36z" fill="#ffffff" p-id="1347"></path><path d="M743.424 1003.52h-89.088c-41.984 0-76.8-34.816-76.8-76.8s34.816-76.8 76.8-76.8h89.088c29.696 0 57.344 17.408 69.632 45.056 1.024 3.072 1.024 7.168-1.024 10.24-2.048 3.072-5.12 5.12-8.192 5.12h-143.36c-9.216 0-17.408 8.192-17.408 17.408 0 9.216 8.192 17.408 17.408 17.408h143.36c3.072 0 7.168 2.048 8.192 5.12 2.048 3.072 2.048 6.144 1.024 10.24-12.288 25.6-39.936 43.008-69.632 43.008z m-89.088-133.12c-30.72 0-56.32 25.6-56.32 56.32s25.6 56.32 56.32 56.32h89.088c16.384 0 30.72-7.168 41.984-18.432H660.48c-20.48 0-37.888-17.408-37.888-37.888s17.408-37.888 37.888-37.888h124.928c-10.24-11.264-25.6-18.432-41.984-18.432h-89.088z" fill="#ffffff" p-id="1348"></path></svg>