<?xml version="1.0" standalone="no"?><!DOCTYPE svg PUBLIC "-//W3C//DTD SVG 1.1//EN" "http://www.w3.org/Graphics/SVG/1.1/DTD/svg11.dtd"><svg t="1610081698978" class="icon" viewBox="0 0 1045 1024" version="1.1" xmlns="http://www.w3.org/2000/svg" p-id="1881" xmlns:xlink="http://www.w3.org/1999/xlink" width="204.1015625" height="200"><defs><style type="text/css"></style></defs><path d="M468.373333 277.248l-17.706666-75.456-19.306667-5.333333-29.162667 22.997333-18.346666 33.28-4.842667 12.736 8.96 4.693333 43.392 7.082667 34.624 14.784zM323.093333 273.557333l-39.850666-38.784-7.893334-3.413333-19.349333 11.221333-9.088 20.266667v29.184l3.968 21.610667 50.773333-28.501334z" fill="#F5D985" p-id="1882"></path><path d="M143.829333 432.170667c43.306667 3.029333 69.248 8.597333 77.888 16.682666 12.949333 12.117333 25.962667 57.685333 55.616 60.416 29.653333 2.730667 91.242667-9.386667 104.832-13.141333 13.589333-3.754667 20.544 80.128-32.149333 122.218667-35.136 28.053333-41.322667 78.464-18.56 151.274666l18.56 33.898667 18.176 18.389333-10.624 23.296c12.16 2.517333 26.666667 0.213333 43.434667-6.826666a360.32 360.32 0 0 0 49.642666-25.749334c35.093333 2.944 78.762667 2.944 130.986667 0a1715.2 1715.2 0 0 0 157.44-16.234666l9.834667-6.954667 32.064 17.088 53.824 6.101333h11.946666l16.853334-43.008-12.224-34.261333 8.021333-41.706667 18.773333-26.88 17.557334-45.568 6.634666-41.941333 4.48-61.653333V512l-11.114666-38.869333 6.634666-6.4c10.730667 12.885333 22.357333 17.856 34.858667 14.912 18.773333-4.437333 33.237333-14.933333 33.237333-26.453334 0-11.584-4.309333-41.728-30.144-47.488s-51.818667 1.237333-51.818666 12.842667c0 7.744-1.493333 13.333333-4.48 16.725333l-32.64-47.658666-96.810667-53.269334-136.96-13.184H512l-12.629333-23.850666-20.906667-52.16-21.013333-38.421334-6.805334-6.933333c10.24 55.296 15.338667 85.376 15.338667 90.24 0 4.842667-13.098667-0.96-39.296-17.450667l-72.490667-4.416h-10.922666l-40.277334-30.549333-30.634666-8.256c31.466667 24.618667 47.210667 39.914667 47.210666 45.888 0 5.973333-12.117333 10.922667-36.330666 14.784l-57.92 54.570667-19.989334 30.037333-6.336 16.128-38.656-6.677333-16.512 46.08z" fill="#FFAC4B" p-id="1883"></path><path d="M522.666667 896c194.410667 0 352-9.557333 352-21.333333 0-8.256-77.354667-15.424-190.506667-18.965334-7.424-0.213333-13.482667 7.893333-22.037333 9.813334-6.4 1.493333-33.002667 1.173333-38.933334 1.024-4.8-0.106667-9.578667 1.536-11.178666-1.493334-1.813333-3.456 32.725333-10.56 4.053333-11.008A6120.106667 6120.106667 0 0 0 522.666667 853.333333c-33.301333 0-49.6 0.170667-80.149334 0.704-3.584 0.064 0.554667 9.386667-8 11.498667-13.44 3.285333-40.874667-0.128-46.293333 0-9.664 0.213333-7.957333-10.389333-17.194667-10.133333C252.522667 858.837333 170.666667 866.176 170.666667 874.666667c0 11.776 157.589333 21.333333 352 21.333333z" fill="#D8D8D8" p-id="1884"></path><path d="M256.405333 381.632c3.050667 2.453333 8.533333 0.746667 12.224-3.84 3.712-4.565333 4.266667-10.282667 1.194667-12.757333-3.050667-2.453333-8.533333-0.746667-12.245333 3.84-3.690667 4.565333-4.224 10.282667-1.173334 12.757333z" fill="#FFFFFF" p-id="1885"></path><path d="M208.981333 596.544a5.333333 5.333333 0 0 1 4.309334 6.186667c-7.573333 41.6 1.28 78.72 26.602666 111.68 25.6 33.301333 59.008 56.597333 100.352 69.973333a5.333333 5.333333 0 1 1-3.285333 10.133333c-43.392-14.016-78.613333-38.570667-105.514667-73.6-27.178667-35.370667-36.757333-75.52-28.650666-120.085333a5.333333 5.333333 0 0 1 4.970666-4.373333l1.216 0.085333z" fill="#000000" p-id="1886"></path><path d="M327.573333 732.522667a5.333333 5.333333 0 0 1 5.909334 4.693333c3.605333 30.506667 9.642667 49.621333 17.408 56.853333l9.514666 8.682667c3.562667 3.306667 6.037333 5.866667 8.021334 8.469333 5.354667 7.04 6.634667 14.165333 2.986666 21.973334-0.874667 1.92-1.92 3.797333-3.328 6.229333l-6.08 10.282667a27.328 27.328 0 0 0-2.773333 6.229333c-0.576 2.069333-0.490667 2.261333 0.981333 2.837333 13.333333 5.162667 66.986667 7.082667 68.885334 2.816 4.672-10.624 9.28-21.824 13.226666-32.896l2.24-6.592c3.733333-11.562667 5.376-19.946667 4.522667-21.333333a5.333333 5.333333 0 1 1 9.066667-5.589333c3.669333 5.930667 1.088 17.770667-5.781334 37.098666-4.053333 11.370667-8.746667 22.762667-13.525333 33.6-5.333333 12.096-64.042667 10.005333-82.496 2.837334-6.997333-2.730667-9.322667-8.597333-7.424-15.573334a39.68 39.68 0 0 1 4.586667-10.112l3.861333-6.464c2.133333-3.52 3.392-5.76 4.394667-7.893333 1.813333-3.925333 1.28-6.890667-1.834667-10.986667a46.997333 46.997333 0 0 0-4.608-5.056l-11.712-10.752c-10.197333-9.514667-16.853333-30.506667-20.714667-63.424a5.333333 5.333333 0 0 1 4.672-5.930666zM218.005333 687.36l4.629334 9.6-14.4 7.04c-28.522667 14.186667-44.8 23.637333-46.421334 26.453333-2.346667 4.117333 20.693333 30.144 38.058667 35.562667 13.12 4.096 43.306667 4.288 89.856 0.384l7.104-0.597333 0.96 10.624-14.378667 1.194666c-43.882667 3.413333-72.597333 2.986667-86.72-1.429333-22.890667-7.146667-51.072-38.933333-44.138666-51.029333 3.285333-5.696 20.693333-15.893333 55.146666-32.810667l10.304-5.013333z" fill="#000000" p-id="1887"></path><path d="M518.464 317.845333h30.378667c91.306667 0.341333 152.682667 3.776 184.384 10.410667 52.714667 10.986667 104.469333 39.957333 128.874666 66.965333 10.624 11.733333 19.498667 25.002667 26.709334 39.701334 2.090667 4.266667 17.173333 49.984 18.197333 55.04 13.845333 69.226667-0.213333 139.093333-41.728 208.810666a77.290667 77.290667 0 0 0-6.336 42.133334l0.938667 6.890666c2.197333 14.357333 4.544 17.365333 13.056 22.250667 13.504 7.744 14.741333 47.082667 3.733333 60.394667-10.773333 13.056-25.984 7.104-31.509333-6.72-0.362667-0.917333-4.8-2.197333-15.125334-3.456l-19.306666-2.176-2.538667-0.32a209.536 209.536 0 0 1-21.546667-3.904 79.914667 79.914667 0 0 1-20.693333-8.021334l-2.965333-1.770666-9.002667-5.76-1.109333-0.682667a10.24 10.24 0 0 0-2.858667-1.237333l-0.554667-0.042667c-0.64 0.042667-1.493333 0.512-2.773333 1.770667l-1.024 1.109333c-13.312 15.082667-77.653333 36.202667-155.264 41.130667-26.346667 1.664-73.109333-2.794667-140.586667-13.354667a5.333333 5.333333 0 0 1 1.664-10.538667l25.066667 3.776c53.333333 7.722667 91.136 10.88 113.173333 9.472 42.474667-2.709333 78.933333-9.621333 108.373334-19.306666 19.2-6.293333 34.346667-13.717333 38.784-17.493334l0.789333-0.746666c3.541333-4.032 7.04-6.186667 11.072-6.464 2.965333-0.213333 5.546667 0.554667 8.746667 2.282666l3.2 1.962667c2.346667 1.557333 8.213333 5.333333 10.453333 6.570667 5.461333 3.050667 11.2 5.333333 17.984 6.976l7.765333 1.749333c4.202667 0.853333 8.341333 1.450667 15.445334 2.282667l15.594666 1.749333c16.896 1.834667 23.466667 3.413333 26.517334 9.088l0.64 1.386667c2.88 7.253333 8.704 9.536 13.376 3.904 7.189333-8.725333 6.186667-40.32-0.832-44.352-13.013333-7.466667-16.298667-13.610667-19.264-37.056a88.192 88.192 0 0 1 7.466666-48.384c40.490667-68.096 54.016-135.296 40.725334-201.792-0.853333-4.202667-15.658667-49.066667-17.322667-52.458667a160.789333 160.789333 0 0 0-25.024-37.248c-22.890667-25.301333-72.618667-53.12-123.178667-63.68-34.112-7.125333-105.088-10.538667-212.522666-10.176a5.333333 5.333333 0 0 1-0.042667-10.666667z" fill="#000000" p-id="1888"></path><path d="M702.229333 812.608l10.666667 0.021333c-0.042667 23.424-7.488 40.426667-22.528 50.389334-19.029333 12.629333-54.485333 16.938667-70.037333 11.2-7.552-2.794667-10.922667-8.789333-9.130667-15.168 1.429333-5.12 6.101333-9.493333 10.986667-9.493334-1.28 0-1.578667-0.213333-1.493334-0.853333l0.426667-1.408c0.938667-3.072 1.834667-7.573333 2.688-13.482667l0.490667-3.712 10.581333 1.344-1.045333 7.466667c-2.304 14.890667-5.141333 21.312-11.648 21.312 0.426667 0-0.469333 0.832-0.725334 1.706667-0.213333 0.853333 0.064 1.344 2.56 2.282666 12.352 4.565333 44.245333 0.661333 60.458667-10.069333 10.837333-7.189333 16.768-19.349333 17.621333-36.992l0.128-4.544z" fill="#000000" p-id="1889"></path><path d="M167.850667 382.976c-16.533333-5.056-27.136-7.082667-31.829334-6.101333-14.144 2.944-17.28 3.349333-23.658666 13.973333-4.245333 7.104-1.365333 33.642667 8.597333 79.658667 27.392-34.986667 42.56-55.232 45.525333-60.757334 2.944-5.525333 3.413333-14.464 1.365334-26.773333z" fill="#000000" p-id="1890"></path><path d="M117.013333 408.213333a5.333333 5.333333 0 0 1 5.461334 5.205334l0.405333 13.738666c2.090667 59.946667 8.064 94.293333 16.362667 100.586667 8.021333 6.101333 22.016 0.426667 42.197333-19.541333a5.333333 5.333333 0 0 1 7.509333 7.594666c-23.573333 23.296-42.368 30.933333-56.170666 20.458667-12.885333-9.813333-19.242667-49.642667-20.970667-122.581333a5.333333 5.333333 0 0 1 5.205333-5.461334zM922.24 358.869333c31.317333-6.528 60.693333 5.76 73.706667 34.346667 17.408 38.357333 21.312 67.605333 5.845333 93.866667-17.002667 28.949333-72.704 41.088-100.778667 25.941333a5.333333 5.333333 0 0 1 5.056-9.386667c23.253333 12.544 72.597333 1.792 86.528-21.952 13.226667-22.464 9.749333-48.554667-6.378666-84.053333-10.773333-23.722667-35.072-33.898667-61.802667-28.330667-15.872 3.306667-30.976 18.112-45.013333 44.885334a5.333333 5.333333 0 0 1-9.450667-4.949334c15.36-29.333333 32.704-46.293333 52.288-50.368zM345.28 267.541333c66.922667-11.029333 129.088 11.52 186.112 67.221334a5.333333 5.333333 0 1 1-7.466667 7.637333c-54.677333-53.461333-113.514667-74.773333-176.917333-64.32-61.162667 10.090667-107.669333 46.613333-139.818667 110.08l-3.392 6.890667-1.685333 3.562666-49.301333-7.253333a5.333333 5.333333 0 0 1 0.32-10.581333l1.216 0.042666 41.557333 6.101334 1.706667-3.413334c32.448-64.213333 79.552-102.570667 141.013333-114.773333l6.656-1.194667z" fill="#000000" p-id="1891"></path><path d="M138.730667 530.304a5.333333 5.333333 0 0 1 6.570666 3.733333 93.226667 93.226667 0 0 0 23.978667 41.472c11.733333 11.904 24.298667 20.032 37.738667 24.490667a5.333333 5.333333 0 1 1-3.349334 10.112c-15.125333-4.992-29.12-14.08-41.984-27.093333a103.893333 103.893333 0 0 1-26.666666-46.165334 5.333333 5.333333 0 0 1 3.712-6.549333zM426.837333 192.490667c13.546667-3.797333 23.402667 0.170667 32.682667 11.989333 2.432 3.114667 4.864 6.762667 7.744 11.52l13.610667 23.957333c11.477333 20.266667 20.309333 42.666667 26.538666 67.157334l2.218667 9.28-10.410667 2.325333a270.613333 270.613333 0 0 0-23.146666-65.194667l-5.184-9.557333c-2.154667-3.861333-8.746667-15.594667-10.602667-18.794667a124.416 124.416 0 0 0-9.173333-14.101333c-6.762667-8.618667-12.309333-10.88-21.376-8.32-11.733333 3.306667-28.48 25.856-48.810667 67.221333l-2.773333 5.76-9.621334-4.608c22.976-47.978667 41.856-74.005333 58.304-78.634666zM260.629333 229.184c18.154667-9.6 45.888 2.666667 84.202667 35.413333l4.842667 4.202667-7.04 8.021333c-37.610667-33.066667-63.658667-45.269333-77.013334-38.186666-12.757333 6.698667-16.789333 32.618667-10.368 77.696l0.896 5.973333-10.538666 1.664c-8.32-53.12-4.010667-84.736 15.018666-94.784z" fill="#000000" p-id="1892"></path><path d="M935.253333 438.677333a5.333333 5.333333 0 0 1 2.901334 6.954667 41.813333 41.813333 0 0 1-17.429334 20.053333 40.234667 40.234667 0 0 1-25.557333 6.165334 5.333333 5.333333 0 1 1 1.088-10.602667c6.442667 0.64 12.693333-0.853333 18.922667-4.693333 6.229333-3.797333 10.56-8.746667 13.12-14.976a5.333333 5.333333 0 0 1 5.568-3.264l1.386666 0.362666z" fill="#000000" p-id="1893"></path></svg>