<?xml version="1.0" standalone="no"?><!DOCTYPE svg PUBLIC "-//W3C//DTD SVG 1.1//EN" "http://www.w3.org/Graphics/SVG/1.1/DTD/svg11.dtd"><svg t="1610082125270" class="icon" viewBox="0 0 1024 1024" version="1.1" xmlns="http://www.w3.org/2000/svg" p-id="2369" xmlns:xlink="http://www.w3.org/1999/xlink" width="200" height="200"><defs><style type="text/css"></style></defs><path d="M522.666667 782.016c229.76 0 416-14.336 416-32 0-7.616-29.866667-9.045333-84.458667-10.837333-19.626667-0.64-42.282667-8.192-68.138667-6.464-69.077333 4.608-163.264 28.842667-258.389333 28.842666-60.117333 0-121.685333-16.426667-160.042667-14.314666-36.970667 2.026667-69.717333-2.176-75.413333 0-7.36 2.773333-42.24 18.005333-54.4 14.293333-14.613333-4.394667-16.277333-31.317333-26.752-33.301333-19.413333-3.690667-26.496 2.944-44.309333 5.205333-38.144 4.842667-60.096 10.517333-60.096 16.576 0 17.664 186.24 32 416 32z" fill="#D8D8D8" p-id="2370"></path><path d="M273.130667 364.309333l-10.581334 34.304c-77.952 77.781333-109.226667 128.96-93.802666 153.557334 23.146667 36.906667 113.322667 30.4 127.616 42.133333 9.536 7.808 12.586667 17.834667 9.109333 30.08l-26.602667 9.642667c-12.864 45.781333-8.405333 77.013333 13.354667 93.653333 58.026667 6.506667 249.450667-46.250667 291.093333-39.68 41.642667 6.570667 234.517333 44.373333 257.749334 28.778667 40.341333-6.976 39.061333-68.330667 52.117333-82.773334 8.682667-9.6 19.370667-14.293333 32.021333-14.122666-16.810667-18.88-35.690667-32.32-56.64-40.298667-20.949333-7.978667-25.109333-17.109333-12.501333-27.413333l30.122667-31.424v-34.709334l-14.293334-2.304-9.024-34.517333-49.237333 34.517333c-20.650667-30.037333-64.106667-50.816-130.346667-62.336-66.261333-11.52-142.293333-11.52-228.16 0l4.416-57.088-8.32-58.304-39.168-59.669333-35.178666-17.216-37.845334 17.216-33.557333 34.645333-35.925333-27.584-28.458667-7.04-25.92 3.413334-20.330667 16.277333-14.08 66.133333 7.402667 57.28 3.157333 4.672 49.770667-26.24 32.042667-3.584z" fill="#FFAC4B" p-id="2371"></path><path d="M376.874667 223.786667c33.664 0 78.976 46.058667 86.101333 115.413333 5.76 56.256-1.621333 99.733333-22.464 130.325333a5.333333 5.333333 0 0 1-8.810667-6.016c19.221333-28.224 26.197333-69.248 20.650667-123.221333-6.592-64.170667-47.573333-105.834667-75.477333-105.834667-19.2 0-44.181333 19.733333-70.784 64.362667-9.962667 16.725333-22.826667 52.864-38.4 108.010667a5.333333 5.333333 0 1 1-10.282667-2.901334l4.458667-15.488c13.845333-47.36 25.472-78.976 35.050666-95.061333 28.330667-47.552 56.256-69.589333 79.957334-69.589333z" fill="#000000" p-id="2372"></path><path d="M418.965333 435.690667c11.413333-12.437333 12.885333-63.274667 8.64-87.872-10.026667-58.176-33.664-71.466667-43.456-81.770667-20.885333-21.973333-68.224 60.629333-73.621333 68.864-5.418667 8.234667 31.445333-9.706667 28.693333 8.405333-2.773333 18.133333-38.4 40.064-33.258666 46.848 5.12 6.762667 46.976-31.872 55.082666-27.84 8.106667 4.010667-17.92 42.154667-11.946666 49.237334 5.994667 7.082667 33.408-25.962667 39.658666-21.397334 6.250667 4.565333 18.773333 57.962667 30.208 45.525334z" fill="#FFD0D7" p-id="2373"></path><path d="M380.288 269.717333l2.496 2.432c2.730667 2.581333 6.570667 6.101333 7.274667 6.784 4.416 4.245333 8.064 8.405333 11.584 13.44 9.386667 13.354667 16.405333 31.296 20.714666 56.341334l0.597334 3.882666c3.669333 26.538667 0.704 66.410667-6.762667 77.973334l-1.024 1.28-0.917333-0.853334c-1.728-2.048-4.053333-6.272-6.826667-12.458666l-2.88-6.826667c-0.170667-0.426667-4.864-12.309333-6.101333-15.189333-2.517333-5.909333-4.202667-8.96-6.549334-10.666667-5.226667-3.84-8.042667-2.901333-19.925333 6.570667l-8.661333 6.954666-8.448 6.506667a18.368 18.368 0 0 0-0.938667 0.832l-0.618667 0.64 0.597334-2.005333c0.704-2.176 1.92-5.568 3.733333-10.026667l6.933333-16.362667c5.866667-14.4 5.653333-18.048-1.152-21.418666-5.12-2.538667-9.728-0.896-22.826666 7.744l-16.213334 10.922666-6.357333 4.117334 8.213333-8.405334c5.44-5.546667 9.28-9.92 12.309334-14.293333 3.242667-4.714667 5.290667-9.152 5.952-13.504 0.981333-6.528-1.706667-11.456-7.210667-13.504-3.541333-1.322667-7.765333-1.365333-13.312-0.618667l-4.586667 0.725334 3.84-6.122667c5.077333-8.042667 10.069333-15.488 15.168-22.528 6.101333-8.384 11.946667-15.573333 17.429334-21.226667 11.904-12.309333 20.117333-15.701333 24.469333-11.136z m7.701333-7.36c-10.304-10.858667-24.149333-5.12-39.829333 11.093334a210.346667 210.346667 0 0 0-18.389333 22.357333c-3.52 4.842667-6.954667 9.834667-10.389334 15.061333l-7.168 11.2c-2.624 4.181333-5.888 9.493333-6.144 9.898667-3.349333 5.098667-0.554667 9.664 4.352 10.453333l1.536 0.128c0.874667 0 1.344 0 2.218667-0.128l11.2-1.834666c3.946667-0.533333 6.72-0.512 8.192 0.042666 0.64 0.213333 0.64 0.213333 0.384 1.898667-0.384 2.517333-1.792 5.546667-4.202667 9.045333a99.925333 99.925333 0 0 1-11.136 12.864l-7.018666 7.04c-2.709333 2.709333-4.565333 4.693333-6.122667 6.485334-5.269333 6.122667-7.317333 10.709333-3.754667 15.402666 4.48 5.909333 7.552 5.738667 22.741334-4.288l15.424-10.453333a211.84 211.84 0 0 1 18.218666-11.328l-0.192 0.213333c-1.152 1.493333-2.944 6.677333-6.122666 14.250667l-4.394667 10.282667c-5.568 13.44-6.314667 18.261333-2.346667 22.976 5.546667 6.549333 10.496 4.266667 24.405334-6.869334l8.042666-6.442666c5.482667-4.266667 8.874667-6.677333 8.106667-7.253334l0.341333 0.234667a2.944 2.944 0 0 1 0.362667 0.64l8.341333 20.373333c6.485333 16 10.794667 23.786667 16.96 26.410667 4.032 1.706667 8.149333 0.597333 11.285334-2.816 11.690667-12.736 15.274667-61.696 9.984-92.373333-4.565333-26.538667-12.181333-45.952-22.485334-60.693334-5.568-7.936-23.722667-25.770667-23.850666-25.514666l1.450666 1.642666zM213.461333 244.736c31.402667-10.56 65.152 1.28 100.842667 34.709333a5.333333 5.333333 0 0 1-7.274667 7.786667c-33.109333-30.976-63.04-41.493333-90.154666-32.384-25.706667 8.64-34.090667 56.170667-22.634667 143.082667a5.333333 5.333333 0 0 1-10.581333 1.386666c-12.096-91.861333-2.986667-143.573333 29.802666-154.581333z" fill="#000000" p-id="2374"></path><path d="M272.576 358.997333a5.333333 5.333333 0 0 1 1.109333 10.624c-40.533333 4.202667-73.130667 19.498667-97.984 45.952-24.96 26.538667-40.96 63.082667-47.893333 109.717334a5.333333 5.333333 0 1 1-10.538667-1.557334c7.253333-48.682667 24.106667-87.210667 50.666667-115.477333 26.666667-28.373333 61.610667-44.8 104.64-49.258667z" fill="#000000" p-id="2375"></path><path d="M156.352 519.189333a5.333333 5.333333 0 1 1 0 10.666667l-13.653333 0.064c-55.04 0.533333-87.552 4.416-95.466667 10.794667-13.226667 10.666667-3.136 75.456 44.053333 123.946666 40.768 41.92 80.341333 59.349333 118.912 52.949334a5.333333 5.333333 0 1 1 1.749334 10.517333c-42.453333 7.04-85.312-11.818667-128.298667-56.021333-51.029333-52.458667-62.208-124.288-43.093333-139.690667 11.392-9.173333 49.130667-13.226667 115.797333-13.226667z" fill="#000000" p-id="2376"></path><path d="M351.146667 609.258667a5.333333 5.333333 0 1 1 2.304 10.410666l-15.36 3.477334c-79.658667 18.389333-122.581333 34.837333-125.504 46.122666-9.386667 36.266667 3.2 86.954667 34.688 86.954667 18.624 0 30.08-2.410667 36.864-6.378667 2.538667-1.472 7.466667-6.229333 8.042666-6.570666a7.786667 7.786667 0 0 1 4.181334-1.237334l2.346666 0.256c2.837333 0.362667 7.296 1.024 8.469334 1.173334 17.792 2.282667 34.624 1.962667 50.773333-2.752a76.074667 76.074667 0 0 0 26.56-13.568 5.333333 5.333333 0 0 1 6.677333 8.32 86.677333 86.677333 0 0 1-30.250666 15.488c-17.813333 5.205333-35.989333 5.546667-55.125334 3.093333l-8.426666-1.194667-0.512 0.490667a53.077333 53.077333 0 0 1-5.994667 4.864l-1.365333 0.853333c-8.64 5.034667-21.888 7.829333-42.24 7.829334-41.450667 0-55.893333-58.197333-45.013334-100.266667 4.736-18.346667 53.034667-36.181333 148.885334-57.386667zM288.554667 476.16a5.333333 5.333333 0 1 1 7.36 7.68c-13.376 12.778667-27.541333 21.098667-42.517334 24.874667-15.146667 3.84-30.656 2.538667-46.336-3.84a5.333333 5.333333 0 1 1 4.032-9.898667c13.610667 5.546667 26.794667 6.656 39.68 3.413333 13.098667-3.328 25.685333-10.709333 37.76-22.250666zM148.394667 630.634667a5.333333 5.333333 0 1 1 8.234666 6.784c-12.864 15.616-22.464 25.173333-29.312 28.970666-13.952 7.68-26.965333 9.621333-37.418666 8.32l-2.325334-0.384a5.333333 5.333333 0 0 1 1.173334-10.517333l2.474666 0.32c8.341333 1.045333 19.114667-0.576 30.933334-7.082667 5.312-2.922667 14.229333-11.818667 26.24-26.410666z" fill="#000000" p-id="2377"></path><path d="M455.530667 426.730667l-0.789334-10.666667 23.850667-1.621333c124.970667-7.914667 213.376-1.92 265.493333 18.133333 54.016 20.821333 94.997333 66.581333 122.965334 136.96l1.941333 5.056 1.941333 0.362667c27.968 5.845333 48.597333 22.976 61.525334 50.944l1.173333 2.709333 1.493333 0.469333c56.789333 19.605333 78.336 100.330667 39.829334 108.501334l-2.709334 0.426666c-11.114667 1.28-20.949333-2.133333-31.466666-9.365333l-3.52-2.56c-1.066667-0.789333-6.4-5.098667-9.728-7.637333l-1.898667-1.408-0.938667 1.664c-6.762667 10.197333-28.16 21.418667-54.378666 25.088l-4.672 0.554666c-14.293333 1.472-40.938667-0.661333-78.592-6.4-93.504 17.834667-166.165333 27.477333-218.026667 28.949334-49.429333 1.386667-114.858667-3.562667-196.394667-14.848l-12.352-1.728 1.514667-10.56c86.741333 12.416 155.733333 17.92 206.933333 16.469333 51.2-1.450667 123.328-11.029333 218.090667-28.8l20.373333 2.773333c27.52 3.456 46.698667 4.629333 57.386667 3.541334 27.669333-2.837333 49.557333-15.146667 51.733333-21.866667 2.346667-7.210667 8.384-8.042667 14.464-4.266667 2.346667 1.493333 11.946667 9.258667 12.885334 9.962667 9.92 7.466667 18.304 10.901333 27.349333 9.856 27.264-3.178667 10.176-70.72-38.72-88.042667l-4.053333-1.28-3.434667-3.114666c-11.370667-27.605333-29.76-43.946667-55.594667-49.493334l-4.928-0.917333-3.072-0.490667-1.088-2.901333c-27.008-72.192-66.965333-118.272-119.850666-138.645333-51.946667-20.010667-143.018667-25.642667-272.853334-16.682667l-11.882666 0.853333z" fill="#000000" p-id="2378"></path><path d="M864.746667 434.816l3.413333 5.973333c2.88 5.034667 3.946667 14.976 3.477333 30.528l-0.32 7.125334 10.218667-3.477334 5.333333-1.856 1.557334 5.418667c8.362667 28.928-0.234667 54.165333-25.28 74.837333l-3.861334 3.072-6.442666-8.512c22.016-16.682667 30.933333-35.925333 27.178666-58.389333l-0.533333-2.581333-5.824 1.984c-4.608 1.493333-6.826667 2.005333-8.405333 1.92l-1.28-0.234667-4.032-1.28 0.298666-4.181333c0.853333-12.224 1.002667-21.845333 0.597334-28.608l-0.256-3.050667-5.888 5.354667c-8.832 7.893333-18.688 16.064-29.525334 24.533333l-8.32 6.4-6.442666-8.512a580.906667 580.906667 0 0 0 43.477333-36.074667l5.930667-5.610666 4.928-4.778667z" fill="#000000" p-id="2379"></path><path d="M109.866667 524.522667c8.170667 16.597333 7.146667 35.925333-3.050667 58.026666a112.085333 112.085333 0 0 1-47.466667 51.477334l-20.842666-69.930667 5.397333-27.52 49.493333-12.053333h16.490667z" fill="#000000" p-id="2380"></path></svg>