<?xml version="1.0" standalone="no"?><!DOCTYPE svg PUBLIC "-//W3C//DTD SVG 1.1//EN" "http://www.w3.org/Graphics/SVG/1.1/DTD/svg11.dtd"><svg t="1610081834831" class="icon" viewBox="0 0 1024 1024" version="1.1" xmlns="http://www.w3.org/2000/svg" p-id="1930" xmlns:xlink="http://www.w3.org/1999/xlink" width="200" height="200"><defs><style type="text/css"></style></defs><path d="M515.072 520.192m-489.472 0a489.472 489.472 0 1 0 978.944 0 489.472 489.472 0 1 0-978.944 0Z" fill="#FFFFFF" p-id="1931"></path><path d="M515.072 1024C236.544 1024 10.24 797.696 10.24 520.192 10.24 241.664 236.544 15.36 515.072 15.36c278.528 0 504.832 226.304 504.832 504.832-1.024 277.504-227.328 503.808-504.832 503.808z m0-977.92C252.928 46.08 40.96 258.048 40.96 520.192 40.96 781.312 252.928 993.28 515.072 993.28c261.12 0 474.112-211.968 474.112-474.112-1.024-261.12-212.992-473.088-474.112-473.088z" fill="#0F0F0F" p-id="1932"></path><path d="M503.808 126.976c-225.28 18.432-393.216 216.064-374.784 442.368" fill="#FFFFFF" p-id="1933"></path><path d="M129.024 583.68c-8.192 0-14.336-6.144-15.36-14.336-9.216-112.64 25.6-223.232 99.328-309.248C286.72 174.08 389.12 120.832 502.784 111.616c8.192-1.024 16.384 5.12 16.384 14.336 1.024 8.192-5.12 15.36-14.336 16.384-105.472 8.192-200.704 57.344-268.288 138.24-68.608 79.872-101.376 182.272-92.16 287.744 1.024 8.192-5.12 15.36-14.336 16.384 0-1.024-1.024-1.024-1.024-1.024z" fill="#0F0F0F" p-id="1934"></path><path d="M555.008 699.392l244.736-200.704c6.144-5.12 11.264-10.24 14.336-16.384 55.296-88.064 31.744-204.8-54.272-265.216C673.792 156.672 556.032 174.08 491.52 256c-4.096 6.144-8.192 12.288-10.24 19.456l-106.496 296.96c-11.264 30.72 0 65.536 26.624 83.968l65.536 46.08c27.648 18.432 63.488 17.408 88.064-3.072z" fill="#F49227" p-id="1935"></path><path d="M508.928 731.136c-17.408 0-35.84-5.12-50.176-16.384l-65.536-46.08c-32.768-22.528-45.056-64.512-31.744-101.376l106.496-297.984c3.072-9.216 7.168-17.408 13.312-23.552 69.632-88.064 196.608-106.496 288.768-41.984 92.16 64.512 117.76 190.464 58.368 286.72-4.096 7.168-10.24 14.336-18.432 20.48L565.248 710.656c-16.384 13.312-35.84 20.48-56.32 20.48z m138.24-535.552c-54.272 0-106.496 23.552-142.336 68.608-3.072 4.096-6.144 9.216-8.192 15.36L390.144 577.536c-8.192 24.576 0 51.2 20.48 66.56l65.536 46.08c21.504 14.336 49.152 13.312 69.632-3.072l244.736-200.704c5.12-4.096 9.216-8.192 11.264-12.288 51.2-81.92 29.696-189.44-49.152-244.736-32.768-22.528-68.608-33.792-105.472-33.792z" fill="#0F0F0F" p-id="1936"></path><path d="M530.432 637.952c-4.096 0-9.216-2.048-12.288-5.12-5.12-6.144-4.096-16.384 2.048-21.504L728.064 440.32c37.888-56.32 24.576-133.12-31.744-172.032-7.168-5.12-8.192-14.336-4.096-21.504 5.12-7.168 14.336-8.192 21.504-4.096 69.632 49.152 87.04 146.432 37.888 216.064l-3.072 3.072L539.648 634.88c-3.072 2.048-6.144 3.072-9.216 3.072z" fill="#0F0F0F" p-id="1937"></path><path d="M371.712 908.288c-15.36 0-31.744-5.12-45.056-14.336-19.456-13.312-30.72-33.792-32.768-57.344-5.12-2.048-10.24-4.096-14.336-8.192-29.696-21.504-36.864-62.464-16.384-92.16 10.24-14.336 25.6-24.576 43.008-27.648 13.312-2.048 26.624-1.024 38.912 5.12l43.008-61.44c5.12-7.168 14.336-8.192 21.504-4.096l80.896 56.32c3.072 2.048 5.12 6.144 6.144 10.24 1.024 4.096 0 8.192-3.072 11.264l-49.152 69.632c11.264 25.6 8.192 54.272-8.192 76.8-15.36 24.576-39.936 35.84-64.512 35.84z m-55.296-168.96c-2.048 0-4.096 0-6.144 1.024-9.216 2.048-17.408 7.168-22.528 14.336-11.264 16.384-7.168 37.888 8.192 49.152 4.096 3.072 9.216 5.12 14.336 6.144 8.192 1.024 13.312 8.192 13.312 16.384-1.024 17.408 6.144 32.768 20.48 43.008 21.504 15.36 52.224 10.24 67.584-11.264 11.264-15.36 11.264-36.864 2.048-53.248-3.072-5.12-3.072-12.288 1.024-16.384l45.056-64.512-55.296-38.912-43.008 60.416c-2.048 3.072-6.144 6.144-10.24 6.144-4.096 1.024-8.192-1.024-12.288-3.072-1.024 0-1.024-1.024-2.048-2.048-6.144-4.096-13.312-7.168-20.48-7.168z" fill="#0F0F0F" p-id="1938"></path></svg>