<?xml version="1.0" standalone="no"?><!DOCTYPE svg PUBLIC "-//W3C//DTD SVG 1.1//EN" "http://www.w3.org/Graphics/SVG/1.1/DTD/svg11.dtd"><svg t="1609595664744" class="icon" viewBox="0 0 1024 1024" version="1.1" xmlns="http://www.w3.org/2000/svg" p-id="2558" width="128" height="128" xmlns:xlink="http://www.w3.org/1999/xlink"><defs><style type="text/css"></style></defs><path d="M253.483886 514.399086C253.483886 653.253486 366.445714 766.215314 505.329371 766.215314 644.213029 766.215314 757.204114 653.253486 757.204114 514.399086 757.204114 375.544686 644.213029 262.524343 505.329371 262.524343 366.445714 262.524343 253.483886 375.544686 253.483886 514.399086L253.483886 514.399086ZM698.689829 514.399086C698.689829 621.041371 611.9424 707.730286 505.329371 707.730286 398.716343 707.730286 311.998171 621.041371 311.998171 514.399086 311.998171 407.7568 398.716343 321.038629 505.329371 321.038629 611.9424 321.038629 698.689829 407.7568 698.689829 514.399086L698.689829 514.399086Z" p-id="2559"></path><path d="M176.128 514.340571C176.128 498.161371 163.050057 485.083429 146.870857 485.083429L47.425829 485.083429C31.246629 485.083429 18.168686 498.161371 18.168686 514.340571 18.168686 530.519771 31.246629 543.597714 47.425829 543.597714L146.870857 543.597714C163.050057 543.597714 176.128 530.519771 176.128 514.340571" p-id="2560"></path><path d="M963.291429 485.083429 863.787886 485.083429C847.608686 485.083429 834.530743 498.161371 834.530743 514.340571 834.530743 530.519771 847.608686 543.597714 863.787886 543.597714L963.291429 543.597714C979.470629 543.597714 992.548571 530.519771 992.548571 514.340571 992.548571 498.161371 979.470629 485.083429 963.291429 485.083429" p-id="2561"></path><path d="M180.282514 668.291657 94.090971 718.058057C80.106057 726.103771 75.307886 744.009143 83.382857 757.994057 88.824686 767.414857 98.655086 772.622629 108.7488 772.622629 113.722514 772.622629 118.754743 771.364571 123.348114 768.731429L209.539657 718.965029C223.524571 710.8608 228.322743 692.955429 220.247771 678.970514 212.114286 664.956343 194.208914 660.187429 180.282514 668.291657" p-id="2562"></path><path d="M815.776914 364.397714C820.750629 364.397714 825.782857 363.139657 830.376229 360.506514L916.597029 310.740114C930.581943 302.635886 935.380114 284.730514 927.305143 270.7456 919.200914 256.731429 901.237029 251.933257 887.339886 260.066743L801.119086 309.833143C787.134171 317.878857 782.336 335.784229 790.410971 349.769143 795.8528 359.189943 805.6832 364.397714 815.776914 364.397714" p-id="2563"></path><path d="M340.757943 799.480686C326.773029 791.434971 308.867657 796.116114 300.792686 810.159543L251.026286 896.351086C242.922057 910.336 247.720229 928.241371 261.7344 936.3456 266.327771 938.978743 271.36 940.2368 276.333714 940.2368 286.427429 940.2368 296.257829 935.029029 301.699657 925.608229L351.466057 839.416686C359.570286 825.431771 354.742857 807.555657 340.757943 799.480686" p-id="2564"></path><path d="M748.9536 92.452571C734.968686 84.348343 717.063314 89.088 708.988343 103.131429L659.2512 189.264457C651.146971 203.249371 655.945143 221.154743 669.959314 229.258971 674.552686 231.892114 679.584914 233.150171 684.558629 233.150171 694.6816 233.150171 704.512 227.9424 709.924571 218.5216L759.661714 132.388571C767.765943 118.403657 762.967771 100.498286 748.9536 92.452571" p-id="2565"></path><path d="M505.417143 843.541943 505.387886 843.541943C489.237943 843.541943 476.130743 856.619886 476.130743 872.799086L476.072229 972.273371C476.072229 988.452571 489.150171 1001.530514 505.300114 1001.530514L505.329371 1001.530514C521.479314 1001.530514 534.586514 988.452571 534.586514 972.331886L534.645029 872.8576C534.645029 856.6784 521.567086 843.541943 505.417143 843.541943" p-id="2566"></path><path d="M505.329371 185.1392C521.508571 185.1392 534.586514 172.061257 534.586514 155.882057L534.586514 56.349257C534.586514 40.170057 521.508571 27.092114 505.329371 27.092114 489.150171 27.092114 476.072229 40.170057 476.072229 56.349257L476.072229 155.882057C476.072229 172.061257 489.150171 185.1392 505.329371 185.1392" p-id="2567"></path><path d="M709.924571 810.101029C701.820343 796.116114 683.885714 791.317943 669.959314 799.422171 655.945143 807.497143 651.146971 825.373257 659.2512 839.387429L708.988343 925.608229C714.400914 934.970514 724.231314 940.2368 734.354286 940.2368 739.328 940.2368 744.360229 938.978743 748.9536 936.3456 762.967771 928.241371 767.765943 910.336 759.661714 896.351086L709.924571 810.101029" p-id="2568"></path><path d="M300.792686 218.5216C306.205257 227.9424 316.035657 233.150171 326.158629 233.150171 331.132343 233.150171 336.164571 231.892114 340.757943 229.258971 354.742857 221.154743 359.570286 203.249371 351.466057 189.264457L301.699657 103.072914C293.595429 89.088 275.6608 84.289829 261.7344 92.394057 247.720229 100.469029 242.922057 118.345143 251.026286 132.330057L300.792686 218.5216" p-id="2569"></path><path d="M916.597029 718.058057 830.376229 668.233143C816.391314 660.099657 798.5152 664.868571 790.410971 678.912 782.336 692.926171 787.134171 710.802286 801.119086 718.906514L887.339886 768.731429C891.933257 771.364571 896.965486 772.622629 901.9392 772.622629 912.032914 772.622629 921.863314 767.414857 927.305143 757.994057 935.380114 744.067657 930.581943 726.103771 916.597029 718.058057" p-id="2570"></path><path d="M209.539657 309.774629 123.348114 260.066743C109.392457 251.933257 91.457829 256.731429 83.382857 270.7456 75.307886 284.730514 80.106057 302.635886 94.090971 310.740114L180.282514 360.448C184.875886 363.081143 189.908114 364.3392 194.881829 364.3392 204.975543 364.3392 214.805943 359.072914 220.247771 349.710629 228.322743 335.725714 223.524571 317.820343 209.539657 309.774629" p-id="2571"></path></svg>